<svg xmlns="http://www.w3.org/2000/svg" width="789.57" height="495.283" viewBox="0 0 789.57 495.283"><defs><style>.a{fill:#f15832;}.b{fill:#ee317f;}.c{fill:#fae729;}.d{fill:#1cbfd2;}.e{fill:#3765b0;}</style></defs><g transform="translate(833.543 3252.393) rotate(-171)"><path class="a" d="M62.5,128.63c0,142.654,142.653,221.113,274.607,206.848C490.459,317.646,494.025,146.461,465.495,25.206c-7.132,7.133-14.265,10.7-24.964,17.832C465.495,57.3,490.459,68,518.99,71.568c7.132,0,53.495,0,57.061,3.566,24.964,21.4,21.4,99.858,32.1,131.955,32.1,78.46,92.725,139.087,178.316,149.787,21.4,3.566,28.531-28.531,7.133-32.1C658.076,303.381,615.28,174.992,615.28,53.736c0-7.133-7.133-17.832-14.266-14.265-53.495,7.133-99.857,0-146.219-24.964-14.266-7.133-24.964,3.566-24.964,17.832C454.8,139.329,454.8,296.248,308.576,303.381,201.587,306.947,87.464,246.319,87.464,128.63c7.133-21.4-24.964-21.4-24.964,0" transform="translate(466.279 2695.491)"/><path class="b" d="M63.792,181.526c17.832,60.628,57.061,103.424,110.556,131.955,53.495,24.965,153.352,46.362,206.847,10.7,49.928-32.1,64.194-121.256,71.326-174.751,3.566-32.1,17.832-121.256-24.964-135.521C402.593,6.775,381.2,31.74,381.2,53.138c0,53.5,74.893,57.062,110.556,53.5,10.7,0,17.832-7.133,24.964-7.133,46.363,3.566,14.266-3.566,28.531,21.4,10.7,21.4,10.7,53.5,24.964,78.46,32.1,60.628,85.592,96.291,153.352,110.557,21.4,3.566,28.53-28.531,7.132-32.1-71.327-14.265-128.388-60.628-146.219-131.955-10.7-35.663,3.566-64.194-24.964-89.159-3.566-3.566-10.7-7.133-14.265-3.566-14.265,7.133-32.1,14.265-46.362,17.832-14.265,10.7-32.1,10.7-49.929,3.566-21.4-10.7-28.531-7.133-21.4,7.133-10.7,17.832,0,64.194-3.566,85.592s-7.133,42.8-17.832,60.628c-14.265,32.1-35.663,60.628-67.76,71.327-28.531,7.133-67.761,3.566-96.291-3.566-67.76-17.832-121.255-60.628-139.087-128.388C88.756,153,56.659,160.128,63.792,181.526" transform="translate(475.686 2710.36)"/><path class="c" d="M63.889,140.988C99.552,251.545,163.746,379.933,302.832,340.7c117.689-32.1,231.811-192.583,213.98-313.838-3.567,7.133-10.7,14.265-14.265,21.4,21.4,0,57.061-7.133,71.327,14.265,7.133,10.7,0,71.327,3.566,82.026,3.567,35.663,14.266,74.893,32.1,106.99,32.1,57.061,85.592,92.725,153.352,92.725,21.4,0,21.4-32.1,0-32.1C616.669,308.607,605.97,140.988,609.537,30.432c0-7.133-7.133-14.265-14.266-14.265-28.531,0-57.061,0-85.592-3.566-10.7,0-17.832,10.7-14.265,21.4,14.265,96.291-89.158,242.511-181.883,271.042C188.71,344.27,135.215,230.147,106.684,133.856c-17.831-21.4-49.928-14.266-42.8,7.133" transform="translate(479.155 2708.1)"/><path class="d" d="M62.9,177.288C95,294.977,280.444,359.172,387.434,312.809,480.158,270.013,505.123,81,430.23,16.8c-7.132-3.566-17.831-7.133-21.4,0-17.832,21.4-21.4,46.362,0,67.761,39.23,35.663,117.689,10.7,156.918-3.566l-21.4-21.4C515.822,184.421,640.643,380.57,783.3,366.3c21.4-3.566,21.4-35.663,0-32.1C665.607,344.906,551.485,173.722,576.449,70.3c3.566-10.7-7.133-24.964-21.4-21.4-24.964,10.7-46.362,10.7-71.326,17.832-35.663,7.133-42.8,0-49.929,32.1-10.7,46.362,10.7,89.159-14.265,131.955C355.337,344.906,123.526,277.146,95,166.589c-7.132-17.832-35.663-10.7-32.1,10.7" transform="translate(469.447 2711.028)"/><path class="e" d="M66.275,127.823C52.009,245.512,91.239,363.2,230.325,327.538c135.52-35.663,203.28-167.618,192.582-299.573,0-7.133-7.133-14.265-14.265-14.265-35.663,0-49.929,32.1-28.531,60.628,35.663,42.8,121.255,7.133,156.919-17.832-7.133-3.566-14.266-10.7-24.964-14.265-7.133,146.22,92.724,274.609,235.377,303.139,21.4,3.566,28.531-24.964,7.133-32.1C626.187,284.742,537.029,170.619,544.162,38.664c0-10.7-14.265-21.4-24.964-14.265C494.233,38.664,472.835,49.363,444.3,52.93,426.473,56.5,408.642,56.5,390.81,49.363V74.328c-10.7,28.531-10.7,60.628-24.964,89.159s-28.53,49.929-49.928,71.327c-32.1,32.1-82.025,60.628-128.388,60.628C76.974,299.008,80.54,195.584,91.239,120.69c7.133-10.7-24.964-10.7-24.964,7.133" transform="translate(501.734 2746.231)"/></g></svg>