<svg xmlns="http://www.w3.org/2000/svg" width="935.113" height="967.185" viewBox="0 0 935.113 967.185"><defs><style>.a{fill:#f15832;}.b{fill:#ee317f;}.c{fill:#fae729;}.d{fill:#1cbfd2;}.e{fill:#3765b0;}</style></defs><g transform="matrix(0.695, 0.719, -0.719, 0.695, 2858.484, -1742.42)"><path class="a" d="M36.3,386.3c0,75.075,34.125,139.913,95.551,184.276,54.6,40.95,156.976,85.313,225.226,54.6C435.564,591.051,428.739,495.5,418.5,423.837c-13.65-122.851-58.013-279.827-3.413-399.265-10.237-3.413-20.475-3.413-27.3-6.825V280.511c0,61.425-6.825,133.088,23.888,191.1,47.775,92.138,167.213,163.8,269.589,143.326,20.475-3.413,10.237-34.125-6.825-30.713-75.076,13.65-139.913-27.3-191.1-75.076S421.915,406.775,418.5,338.524c-3.413-105.788,0-214.989,0-320.777,0-13.65-20.475-20.475-27.3-6.825-58.013,112.613-23.888,252.526-6.825,371.965,6.825,40.95,13.65,81.9,10.238,122.851-6.825,51.188-17.063,75.075-68.25,85.313-34.125,6.825-47.775,6.825-78.488,0C152.326,560.338,67.013,495.5,67.013,386.3c0-20.475-30.713-20.475-30.713,0" transform="translate(-418.167 2935.36)"/><path class="a" d="M53.825,27.871h0c3.413,0,10.238-3.412,17.063-6.825L74.3,24.459c0,6.825,0,13.65-3.412,17.063,10.237-10.238,61.425,0,75.075,0h81.9c20.475,0,20.475-30.713,0-30.713h-109.2c-23.888,0-51.188-6.825-68.251,10.238C47,24.459,47,31.284,47,38.109c3.412,6.825,6.825,10.238,17.063,10.238s13.65-3.413,20.475-10.238V34.7c6.825-17.063-23.888-23.888-30.713-6.825" transform="translate(-63.727 3133.401)"/><path class="b" d="M36.961,401.009C77.911,534.1,187.111,714.96,347.5,612.585c71.663-44.363,81.9-119.438,88.725-194.514,13.65-133.088,17.063-266.176,17.063-399.265,0-20.475-30.713-20.475-30.713,0-3.412,133.088-30.713,286.652-3.412,419.74,20.475,85.313,78.488,156.976,170.626,160.388,20.475,0,20.475-30.713,0-30.713-139.913-6.825-153.563-167.213-150.151-273q5.119-138.207,10.237-276.414H419.162c0,75.075,0,153.563-3.413,228.639-3.413,81.9-3.413,170.626-23.888,249.114-27.3,102.376-139.913,146.738-225.226,81.9C108.623,534.1,81.323,459.021,60.848,394.184c0-20.475-30.713-10.238-23.888,6.825" transform="translate(-429.065 2934.302)"/><path class="b" d="M60.206,39.969c54.6,3.412,109.2,10.238,163.8,13.65,20.475,3.413,20.475-27.3,0-30.713-54.6-3.413-109.2-10.238-163.8-13.65-20.475-3.413-20.475,27.3,0,30.713" transform="translate(-134.947 3117.89)"/><path class="c" d="M38.811,26.594c-17.063,75.075,75.075,129.676,136.5,153.563,64.838,27.3,146.738,6.825,156.976-71.663,3.413-20.475-27.3-20.475-30.713,0C287.925,227.932,49.049,118.732,69.524,33.419c3.412-17.062-27.3-23.888-30.713-6.825" transform="translate(-403.616 3373.556)"/><path class="c" d="M46.6,20.449c6.825,174.039,3.412,484.578,214.989,539.178,20.475,3.413,27.3-23.888,6.825-30.713C73.9,477.726,80.725,174.012,73.9,17.036,77.313-.026,46.6-.026,46.6,20.449" transform="translate(-76.978 2973.611)"/><path class="c" d="M60.422,39.869c23.888,3.413,44.363,6.825,68.25,10.238,20.475,3.413,20.475-27.3,0-30.713-23.888-3.413-44.363-6.825-68.25-10.238-17.063-3.413-17.063,27.3,0,30.713" transform="translate(-43.024 3114.578)"/><path class="d" d="M35.8,433.929c0,71.663,17.063,146.738,71.663,197.926,64.838,58.013,163.8,44.363,228.639-3.413,71.663-51.188,119.438-129.676,129.676-218.4C482.84,280.366,476.015,147.277,482.84,17.6c0-17.063-23.888-20.475-30.713-3.413-23.888,81.9-37.538,167.213-44.363,252.526C400.939,345.2,390.7,430.517,404.352,509c13.65,92.138,92.138,180.864,191.1,136.5,17.063-6.825,3.413-34.125-17.062-27.3-92.138,40.95-139.913-64.838-146.738-136.5-3.412-47.775,0-98.963,3.413-146.738C441.889,229.178,452.127,123.39,482.84,17.6c-10.238,0-20.475-3.413-30.713-3.413-3.412,75.075-6.825,153.563-6.825,228.639-3.412,81.9,3.413,174.039-34.125,252.527-40.95,81.9-136.5,163.8-235.464,136.5C90.4,607.968,66.512,512.417,66.512,433.929c0-17.063-30.712-17.063-30.712,0" transform="translate(-434.729 2918.444)"/><path class="d" d="M64.526,64.1c61.425-6.825,119.438-17.063,180.864-23.888C265.864,36.8,255.626,9.5,238.564,9.5,177.139,16.325,119.126,26.563,57.7,33.388,37.225,36.8,44.05,67.513,64.526,64.1" transform="translate(-118.791 3134.708)"/><path class="e" d="M42.613,323.108c-23.888,68.25,30.713,126.263,81.9,163.8,58.013,40.95,116.026,40.95,174.038-3.412,136.5-102.376,143.326-303.714,129.676-460.69,0-20.475-27.3-20.475-30.713,0C377.04,224.145,428.227,521.034,690.991,510.8c20.475,0,20.475-30.713,0-30.713-245.7,10.238-283.239-273-262.764-457.278H397.515c6.825,95.55,10.238,191.1-20.475,283.239-17.062,51.188-40.95,98.963-81.9,136.5-47.775,47.775-119.438,51.188-170.626,6.825C93.8,422.071,49.438,381.121,66.5,333.346c10.238-20.475-17.062-27.3-23.888-10.238" transform="translate(-400.592 3066.803)"/><path class="e" d="M66.049,47.9c54.6-10.238,109.2-10.238,163.8,3.413,20.475,3.413,27.3-23.888,6.825-30.713C175.25,6.946,117.237,6.946,55.812,17.184,38.749,20.6,48.987,51.309,66.049,47.9" transform="translate(-62.302 3147.5)"/></g></svg>